<svg id="Layer_1" data-name="Layer 1" xmlns="http://www.w3.org/2000/svg" xmlns:xlink="http://www.w3.org/1999/xlink" viewBox="0 0 652.19 608.44"><defs><style>.cls-1{fill:none;stroke:#231f20;stroke-miterlimit:10;}.cls-2{fill:url(#linear-gradient);}.cls-3{fill:url(#linear-gradient-2);}.cls-4{fill:url(#linear-gradient-3);}.cls-5{fill:url(#Orange_Yellow);}</style><linearGradient id="linear-gradient" x1="121.43" y1="308.09" x2="619.66" y2="308.09" gradientUnits="userSpaceOnUse"><stop offset="0.28" stop-color="#fdc70c"/><stop offset="0.67" stop-color="#f3903f"/><stop offset="0.89" stop-color="#ed683c"/><stop offset="1" stop-color="#e93e3a"/></linearGradient><linearGradient id="linear-gradient-2" x1="410.77" y1="431.36" x2="640.07" y2="431.36" gradientUnits="userSpaceOnUse"><stop offset="0.05" stop-color="#ff35ca"/><stop offset="0.17" stop-color="#c429a5"/><stop offset="0.28" stop-color="#911e84"/><stop offset="0.4" stop-color="#651569"/><stop offset="0.52" stop-color="#410d52"/><stop offset="0.64" stop-color="#250740"/><stop offset="0.76" stop-color="#110334"/><stop offset="0.88" stop-color="#05012c"/><stop offset="1" stop-color="#01002a"/></linearGradient><linearGradient id="linear-gradient-3" x1="296.69" y1="336.53" x2="465.53" y2="336.53" gradientUnits="userSpaceOnUse"><stop offset="0.1" stop-color="#a70086"/><stop offset="0.22" stop-color="#9b037d"/><stop offset="0.44" stop-color="#7b0a64"/><stop offset="0.74" stop-color="#48163c"/><stop offset="0.93" stop-color="#231f20"/></linearGradient><linearGradient id="Orange_Yellow" x1="652.17" y1="303.72" x2="652.19" y2="303.72" gradientUnits="userSpaceOnUse"><stop offset="0" stop-color="#fff33b"/><stop offset="0.04" stop-color="#fee72e"/><stop offset="0.12" stop-color="#fed51b"/><stop offset="0.2" stop-color="#fdca10"/><stop offset="0.28" stop-color="#fdc70c"/><stop offset="0.67" stop-color="#f3903f"/><stop offset="0.89" stop-color="#ed683c"/><stop offset="1" stop-color="#e93e3a"/></linearGradient></defs><line class="cls-1" x1="302.2" y1="139.77" x2="302.02" y2="140.15"/><line class="cls-1" x1="302.36" y1="140.15" x2="302.2" y2="139.77"/><path class="cls-1" d="M640.55,140" transform="translate(-121.43 -3.87)"/><path class="cls-1" d="M698.07,138.88" transform="translate(-121.43 -3.87)"/><path class="cls-2" d="M619.66,361.31a200.43,200.43,0,0,0-32.61-62.67c-55.49-72.24-150.48-96.92-232.06-67a.07.07,0,0,1-.06,0,116.4,116.4,0,0,0-70.28,129.6,114.11,114.11,0,0,0,5.91,20.39,115.66,115.66,0,0,0,19.08,32.18L240.83,563.37,294.14,582l81.34,28.41-25.29.2-131.54,1-35,.25-62.2.48,21.87-47.12v0L214,413.09l30.63-65.91,53.86-115.94L404.05,3.87h.68l29.09,69.34L391,165.49c69.46-8.63,141.55,18.65,187.08,77.9A200,200,0,0,1,619.66,361.31Z" transform="translate(-121.43 -3.87)"/><path class="cls-3" d="M618.14,556l-26.92-64.16-35.44-97.6-7.18-19.77c.2-2.87.32-5.77.32-8.72,0-54.5-37.69-100.3-88.61-113a115.94,115.94,0,0,1,10,163.26l57.66,141.71L410.77,610l110.71-.84,27.32-.2,91.27-.69Z" transform="translate(-121.43 -3.87)"/><path class="cls-4" d="M390.25,420.35c-46.6,0-84.42-37.52-84.42-83.82s37.82-83.82,84.42-83.82,84.42,37.52,84.42,83.82S436.88,420.35,390.25,420.35Z" transform="translate(-121.43 -3.87)"/><line class="cls-5" x1="652.19" y1="303.72" x2="652.17" y2="303.72"/></svg>